<svg width="57" height="55" viewBox="0 0 57 55" fill="none" xmlns="http://www.w3.org/2000/svg">
<path d="M57 27.5C57 42.6878 44.2401 55 28.5 55C12.7599 55 0 42.6878 0 27.5C0 12.3122 12.7599 -3.15026e-06 28.5 -3.15026e-06C44.2401 -3.15026e-06 57 12.3122 57 27.5Z" fill="black"/>
<path d="M57 27.5C57 42.6878 44.2401 55 28.5 55C12.7599 55 0 42.6878 0 27.5C0 12.3122 12.7599 -3.15026e-06 28.5 -3.15026e-06C44.2401 -3.15026e-06 57 12.3122 57 27.5Z" fill="black"/>
<path d="M57 27.5C57 42.6878 44.2401 55 28.5 55C12.7599 55 0 42.6878 0 27.5C0 12.3122 12.7599 -3.15026e-06 28.5 -3.15026e-06C44.2401 -3.15026e-06 57 12.3122 57 27.5Z" fill="black"/>
<path d="M57 27.5C57 42.6878 44.2401 55 28.5 55C12.7599 55 0 42.6878 0 27.5C0 12.3122 12.7599 -3.15026e-06 28.5 -3.15026e-06C44.2401 -3.15026e-06 57 12.3122 57 27.5Z" fill="black"/>
</svg>
