<svg width="74" height="42" viewBox="0 0 74 42" fill="none" xmlns="http://www.w3.org/2000/svg">
<path d="M16.8411 7.4375V14H15.165V3.09091H16.7843V4.79545H16.9263C17.182 4.24148 17.5703 3.7964 18.0911 3.46023C18.6119 3.11932 19.2843 2.94886 20.1081 2.94886C20.8468 2.94886 21.4931 3.10038 22.0471 3.40341C22.601 3.7017 23.0319 4.15625 23.3397 4.76705C23.6474 5.37311 23.8013 6.14015 23.8013 7.06818V14H22.1252V7.18182C22.1252 6.32481 21.9026 5.6572 21.4576 5.17898C21.0125 4.69602 20.4017 4.45455 19.6252 4.45455C19.0901 4.45455 18.6119 4.57055 18.1905 4.80256C17.7739 5.03456 17.4448 5.37311 17.2033 5.81818C16.9618 6.26326 16.8411 6.80303 16.8411 7.4375ZM31.438 14.2273C30.3869 14.2273 29.4802 13.9953 28.7179 13.5312C27.9603 13.0625 27.3755 12.4091 26.9636 11.571C26.5564 10.7282 26.3528 9.74811 26.3528 8.63068C26.3528 7.51326 26.5564 6.52841 26.9636 5.67614C27.3755 4.81913 27.9484 4.15152 28.6824 3.6733C29.421 3.19034 30.2827 2.94886 31.2676 2.94886C31.8358 2.94886 32.3968 3.04356 32.9508 3.23295C33.5048 3.42235 34.0091 3.73011 34.4636 4.15625C34.9181 4.57765 35.2804 5.13636 35.5502 5.83239C35.8201 6.52841 35.9551 7.38542 35.9551 8.40341V9.11364H27.546V7.66477H34.2505C34.2505 7.04924 34.1274 6.5 33.8812 6.01705C33.6397 5.53409 33.2941 5.15294 32.8443 4.87358C32.3992 4.59422 31.8736 4.45455 31.2676 4.45455C30.6 4.45455 30.0223 4.62026 29.5346 4.9517C29.0517 5.27841 28.68 5.70455 28.4196 6.23011C28.1592 6.75568 28.0289 7.31913 28.0289 7.92045V8.88636C28.0289 9.71023 28.171 10.4086 28.4551 10.9815C28.7439 11.5497 29.144 11.983 29.6554 12.2812C30.1667 12.5748 30.7609 12.7216 31.438 12.7216C31.8784 12.7216 32.2761 12.66 32.6312 12.5369C32.9911 12.4091 33.3012 12.2197 33.5616 11.9688C33.822 11.7131 34.0233 11.3958 34.1653 11.017L35.7846 11.4716C35.6142 12.0208 35.3277 12.5038 34.9252 12.9205C34.5228 13.3324 34.0256 13.6544 33.4338 13.8864C32.8419 14.1136 32.1767 14.2273 31.438 14.2273ZM39.4618 3.09091L42.0755 7.55114L44.6891 3.09091H46.6209L43.0982 8.54545L46.6209 14H44.6891L42.0755 9.76705L39.4618 14H37.53L40.9959 8.54545L37.53 3.09091H39.4618ZM53.7569 3.09091V4.51136H48.1035V3.09091H53.7569ZM49.7512 0.477273H51.4274V10.875C51.4274 11.3485 51.496 11.7036 51.6333 11.9403C51.7754 12.1723 51.9553 12.3286 52.1731 12.4091C52.3957 12.4848 52.63 12.5227 52.8762 12.5227C53.0609 12.5227 53.2124 12.5133 53.3308 12.4943C53.4492 12.4706 53.5439 12.4517 53.6149 12.4375L53.9558 13.9432C53.8422 13.9858 53.6835 14.0284 53.4799 14.071C53.2763 14.1184 53.0183 14.142 52.7058 14.142C52.2323 14.142 51.7683 14.0402 51.3137 13.8366C50.8639 13.633 50.4899 13.3229 50.1916 12.9062C49.898 12.4896 49.7512 11.964 49.7512 11.3295V0.477273ZM0.0743963 41.125V36.4375H0.983487C1.20603 36.2055 1.39779 35.9545 1.55877 35.6847C1.71976 35.4148 1.85943 35.0952 1.97781 34.7259C2.10091 34.3518 2.20508 33.8973 2.29031 33.3622C2.37553 32.8224 2.45129 32.1714 2.51758 31.4091L2.8869 27.0909H9.81871V36.4375H11.4949V41.125H9.81871V38H1.75053V41.125H0.0743963ZM2.8869 36.4375H8.14258V28.6534H4.4494L4.16531 31.4091C4.04693 32.5502 3.90015 33.5469 3.72496 34.3991C3.54978 35.2514 3.27042 35.9309 2.8869 36.4375ZM16.9299 38.2557C16.2386 38.2557 15.6112 38.1255 15.0478 37.8651C14.4843 37.5999 14.0369 37.2188 13.7054 36.7216C13.374 36.2197 13.2083 35.6136 13.2083 34.9034C13.2083 34.2784 13.3314 33.7718 13.5776 33.3835C13.8238 32.9905 14.1529 32.6828 14.5648 32.4602C14.9767 32.2377 15.4313 32.072 15.9284 31.9631C16.4303 31.8494 16.9346 31.7595 17.4412 31.6932C18.1041 31.608 18.6415 31.544 19.0534 31.5014C19.4701 31.4541 19.7731 31.3759 19.9625 31.267C20.1567 31.1581 20.2537 30.9687 20.2537 30.6989V30.642C20.2537 29.9413 20.062 29.3968 19.6784 29.0085C19.2997 28.6203 18.7244 28.4261 17.9526 28.4261C17.1524 28.4261 16.525 28.6013 16.0705 28.9517C15.6159 29.3021 15.2963 29.6761 15.1117 30.0739L13.5208 29.5057C13.8049 28.8428 14.1837 28.3267 14.6571 27.9574C15.1354 27.5833 15.6562 27.3229 16.2196 27.1761C16.7878 27.0246 17.3465 26.9489 17.8958 26.9489C18.2462 26.9489 18.6486 26.9915 19.1032 27.0767C19.5624 27.1572 20.0051 27.3253 20.4313 27.581C20.8622 27.8366 21.2196 28.2225 21.5037 28.7386C21.7878 29.2547 21.9299 29.946 21.9299 30.8125V38H20.2537V36.5227H20.1685C20.0549 36.7595 19.8655 37.0128 19.6003 37.2827C19.3352 37.5526 18.9824 37.7822 18.5421 37.9716C18.1017 38.161 17.5643 38.2557 16.9299 38.2557ZM17.1855 36.75C17.8484 36.75 18.4071 36.6198 18.8617 36.3594C19.321 36.099 19.6666 35.7628 19.8986 35.3509C20.1354 34.9389 20.2537 34.5057 20.2537 34.0511V32.517C20.1827 32.6023 20.0265 32.6804 19.785 32.7514C19.5482 32.8177 19.2736 32.8769 18.9611 32.929C18.6533 32.9763 18.3527 33.0189 18.0591 33.0568C17.7703 33.09 17.5359 33.1184 17.356 33.142C16.9204 33.1989 16.5132 33.2912 16.1344 33.419C15.7604 33.5421 15.4573 33.7292 15.2253 33.9801C14.998 34.2263 14.8844 34.5625 14.8844 34.9886C14.8844 35.571 15.0998 36.0114 15.5307 36.3097C15.9663 36.6032 16.5179 36.75 17.1855 36.75ZM24.0233 38V36.4375H24.421C24.7477 36.4375 25.0199 36.3736 25.2377 36.2457C25.4556 36.1132 25.6307 35.8835 25.7633 35.5568C25.9006 35.2254 26.0048 34.7661 26.0758 34.179C26.1516 33.5871 26.206 32.8343 26.2392 31.9205L26.438 27.0909H33.7108V38H32.0346V28.6534H28.0289L27.8585 32.5455C27.8206 33.4403 27.7401 34.2287 27.617 34.9105C27.4986 35.5876 27.3163 36.1558 27.0701 36.6151C26.8287 37.0743 26.5067 37.42 26.1042 37.652C25.7018 37.884 25.1975 38 24.5914 38H24.0233ZM38.2349 31.0398H41.3599C42.6383 31.0398 43.6161 31.3641 44.2931 32.0128C44.9702 32.6615 45.3088 33.483 45.3088 34.4773C45.3088 35.1307 45.1573 35.7249 44.8542 36.2599C44.5512 36.7902 44.1061 37.214 43.519 37.5312C42.9319 37.8438 42.2122 38 41.3599 38H36.786V27.0909H38.4622V36.4375H41.3599C42.0228 36.4375 42.5673 36.2623 42.9934 35.9119C43.4196 35.5616 43.6326 35.1117 43.6326 34.5625C43.6326 33.9848 43.4196 33.5137 42.9934 33.1491C42.5673 32.7846 42.0228 32.6023 41.3599 32.6023H38.2349V31.0398ZM47.8603 27.0909H49.5364V36.4375H53.6557V27.0909H55.3319V36.4375H59.4512V27.0909H61.1273V38H47.8603V27.0909ZM68.7623 38.2273C67.7111 38.2273 66.8044 37.9953 66.0421 37.5312C65.2845 37.0625 64.6998 36.4091 64.2878 35.571C63.8806 34.7282 63.677 33.7481 63.677 32.6307C63.677 31.5133 63.8806 30.5284 64.2878 29.6761C64.6998 28.8191 65.2727 28.1515 66.0066 27.6733C66.7452 27.1903 67.6069 26.9489 68.5918 26.9489C69.16 26.9489 69.7211 27.0436 70.275 27.233C70.829 27.4223 71.3333 27.7301 71.7878 28.1562C72.2424 28.5777 72.6046 29.1364 72.8745 29.8324C73.1444 30.5284 73.2793 31.3854 73.2793 32.4034V33.1136H64.8702V31.6648H71.5748C71.5748 31.0492 71.4516 30.5 71.2054 30.017C70.964 29.5341 70.6183 29.1529 70.1685 28.8736C69.7234 28.5942 69.1979 28.4545 68.5918 28.4545C67.9242 28.4545 67.3465 28.6203 66.8588 28.9517C66.3759 29.2784 66.0042 29.7045 65.7438 30.2301C65.4834 30.7557 65.3532 31.3191 65.3532 31.9205V32.8864C65.3532 33.7102 65.4952 34.4086 65.7793 34.9815C66.0681 35.5497 66.4682 35.983 66.9796 36.2812C67.4909 36.5748 68.0852 36.7216 68.7623 36.7216C69.2026 36.7216 69.6003 36.66 69.9554 36.5369C70.3153 36.4091 70.6254 36.2197 70.8858 35.9688C71.1462 35.7131 71.3475 35.3958 71.4895 35.017L73.1088 35.4716C72.9384 36.0208 72.6519 36.5038 72.2495 36.9205C71.847 37.3324 71.3498 37.6544 70.758 37.8864C70.1661 38.1136 69.5009 38.2273 68.7623 38.2273Z" fill="white"/>
<path d="M16.8411 14V14.5H17.3411V14H16.8411ZM15.165 14H14.665V14.5H15.165V14ZM15.165 3.09091V2.59091H14.665V3.09091H15.165ZM16.7843 3.09091H17.2843V2.59091H16.7843V3.09091ZM16.7843 4.79545H16.2843V5.29545H16.7843V4.79545ZM16.9263 4.79545V5.29545H17.2462L17.3803 5.00498L16.9263 4.79545ZM18.0911 3.46023L18.3622 3.88033L18.3649 3.87858L18.0911 3.46023ZM22.0471 3.40341L21.8071 3.84208L21.81 3.84364L22.0471 3.40341ZM23.3397 4.76705L22.8931 4.99204L22.8939 4.99343L23.3397 4.76705ZM23.8013 14V14.5H24.3013V14H23.8013ZM22.1252 14H21.6252V14.5H22.1252V14ZM21.4576 5.17898L21.0899 5.51782L21.0916 5.51962L21.4576 5.17898ZM18.1905 4.80256L17.9494 4.36455L17.9473 4.36571L18.1905 4.80256ZM17.2033 5.81818L16.7638 5.57974L17.2033 5.81818ZM16.3411 7.4375V14H17.3411V7.4375H16.3411ZM16.8411 13.5H15.165V14.5H16.8411V13.5ZM15.665 14V3.09091H14.665V14H15.665ZM15.165 3.59091H16.7843V2.59091H15.165V3.59091ZM16.2843 3.09091V4.79545H17.2843V3.09091H16.2843ZM16.7843 5.29545H16.9263V4.29545H16.7843V5.29545ZM17.3803 5.00498C17.5956 4.53856 17.9197 4.16594 18.3622 3.88032L17.8199 3.04014C17.2208 3.42687 16.7684 3.94439 16.4723 4.58593L17.3803 5.00498ZM18.3649 3.87858C18.7819 3.60565 19.3507 3.44886 20.1081 3.44886V2.44886C19.2179 2.44886 18.4419 2.63299 17.8173 3.04188L18.3649 3.87858ZM20.1081 3.44886C20.7772 3.44886 21.3383 3.58563 21.8071 3.84207L22.287 2.96475C21.6479 2.61513 20.9163 2.44886 20.1081 2.44886V3.44886ZM21.81 3.84364C22.2658 4.08909 22.6273 4.46439 22.8931 4.99203L23.7862 4.54206C23.4365 3.84811 22.9362 3.31432 22.2841 2.96317L21.81 3.84364ZM22.8939 4.99343C23.1554 5.50851 23.3013 6.19155 23.3013 7.06818H24.3013C24.3013 6.08875 24.1394 5.2377 23.7855 4.54066L22.8939 4.99343ZM23.3013 7.06818V14H24.3013V7.06818H23.3013ZM23.8013 13.5H22.1252V14.5H23.8013V13.5ZM22.6252 14V7.18182H21.6252V14H22.6252ZM22.6252 7.18182C22.6252 6.23892 22.3789 5.435 21.8236 4.83834L21.0916 5.51962C21.4264 5.8794 21.6252 6.4107 21.6252 7.18182H22.6252ZM21.8252 4.84014C21.2682 4.23569 20.5136 3.95455 19.6252 3.95455V4.95455C20.2898 4.95455 20.7568 5.15636 21.0899 5.51782L21.8252 4.84014ZM19.6252 3.95455C19.0155 3.95455 18.4527 4.08746 17.9494 4.36455L18.4317 5.24056C18.7712 5.05364 19.1648 4.95455 19.6252 4.95455V3.95455ZM17.9473 4.36571C17.4425 4.64679 17.0476 5.05664 16.7638 5.57974L17.6428 6.05662C17.8419 5.68957 18.1052 5.42234 18.4338 5.2394L17.9473 4.36571ZM16.7638 5.57974C16.4738 6.11427 16.3411 6.74044 16.3411 7.4375H17.3411C17.3411 6.86562 17.4498 6.41224 17.6428 6.05662L16.7638 5.57974ZM28.7179 13.5312L28.4548 13.9565L28.4579 13.9583L28.7179 13.5312ZM26.9636 11.571L26.5134 11.7885L26.5149 11.7916L26.9636 11.571ZM26.9636 5.67614L26.513 5.45953L26.5124 5.46059L26.9636 5.67614ZM28.6824 3.6733L28.9553 4.09221L28.956 4.09178L28.6824 3.6733ZM32.9508 3.23295L33.1126 2.75984L32.9508 3.23295ZM34.4636 4.15625L34.1216 4.52102L34.1237 4.52292L34.4636 4.15625ZM35.5502 5.83239L36.0164 5.65162V5.65162L35.5502 5.83239ZM35.9551 9.11364V9.61364H36.4551V9.11364H35.9551ZM27.546 9.11364H27.046V9.61364H27.546V9.11364ZM27.546 7.66477V7.16477H27.046V7.66477H27.546ZM34.2505 7.66477V8.16477H34.7505V7.66477H34.2505ZM33.8812 6.01705L33.434 6.24066L33.4358 6.24414L33.8812 6.01705ZM32.8443 4.87358L32.5785 5.29708L32.5805 5.29833L32.8443 4.87358ZM29.5346 4.9517L29.8148 5.36585L29.8157 5.36524L29.5346 4.9517ZM28.4196 6.23011L27.9715 6.00812L28.4196 6.23011ZM28.4551 10.9815L28.0071 11.2037L28.0094 11.2081L28.4551 10.9815ZM29.6554 12.2812L29.4034 12.7132L29.4064 12.7149L29.6554 12.2812ZM32.6312 12.5369L32.795 13.0094L32.7986 13.0081L32.6312 12.5369ZM33.5616 11.9688L33.9086 12.3288L33.9119 12.3255L33.5616 11.9688ZM34.1653 11.017L34.3004 10.5357L33.8584 10.4116L33.6971 10.8415L34.1653 11.017ZM35.7846 11.4716L36.2622 11.6198L36.4145 11.1291L35.9198 10.9902L35.7846 11.4716ZM34.9252 12.9205L35.2829 13.2699L35.2849 13.2678L34.9252 12.9205ZM33.4338 13.8864L33.613 14.3531L33.6162 14.3519L33.4338 13.8864ZM31.438 13.7273C30.4621 13.7273 29.6488 13.5126 28.9778 13.1042L28.4579 13.9583C29.3115 14.478 30.3117 14.7273 31.438 14.7273V13.7273ZM28.9809 13.1061C28.3072 12.6892 27.7849 12.1085 27.4123 11.3505L26.5149 11.7916C26.9661 12.7097 27.6134 13.4358 28.4548 13.9564L28.9809 13.1061ZM27.4138 11.3535C27.0451 10.5904 26.8528 9.68721 26.8528 8.63068H25.8528C25.8528 9.809 26.0677 10.866 26.5134 11.7885L27.4138 11.3535ZM26.8528 8.63068C26.8528 7.57432 27.0451 6.66543 27.4147 5.89169L26.5124 5.46059C26.0677 6.39139 25.8528 7.45219 25.8528 8.63068H26.8528ZM27.4142 5.89275C27.7901 5.11085 28.3045 4.51626 28.9553 4.09221L28.4094 3.25438C27.5924 3.78677 26.961 4.52741 26.513 5.45953L27.4142 5.89275ZM28.956 4.09178C29.604 3.66806 30.3683 3.44886 31.2676 3.44886V2.44886C30.1972 2.44886 29.238 2.71262 28.4087 3.25481L28.956 4.09178ZM31.2676 3.44886C31.7791 3.44886 32.2856 3.53393 32.7891 3.70607L33.1126 2.75984C32.5081 2.55319 31.8925 2.44886 31.2676 2.44886V3.44886ZM32.7891 3.70607C33.2717 3.87108 33.7154 4.14019 34.1216 4.52102L34.8056 3.79148C34.3027 3.32003 33.7379 2.97362 33.1126 2.75984L32.7891 3.70607ZM34.1237 4.52292C34.5123 4.88325 34.8361 5.3736 35.0841 6.01315L36.0164 5.65162C35.7246 4.89912 35.324 4.27205 34.8035 3.78958L34.1237 4.52292ZM35.0841 6.01315C35.3251 6.63473 35.4551 7.42623 35.4551 8.40341H36.4551C36.4551 7.3446 36.3152 6.42209 36.0164 5.65162L35.0841 6.01315ZM35.4551 8.40341V9.11364H36.4551V8.40341H35.4551ZM35.9551 8.61364H27.546V9.61364H35.9551V8.61364ZM28.046 9.11364V7.66477H27.046V9.11364H28.046ZM27.546 8.16477H34.2505V7.16477H27.546V8.16477ZM34.7505 7.66477C34.7505 6.98108 34.6133 6.35225 34.3267 5.78995L33.4358 6.24414C33.6415 6.64775 33.7505 7.11741 33.7505 7.66477H34.7505ZM34.3284 5.79344C34.0465 5.22949 33.6381 4.77798 33.1081 4.44883L32.5805 5.29833C32.9501 5.52789 33.233 5.8387 33.434 6.24065L34.3284 5.79344ZM33.1101 4.45009C32.5738 4.11345 31.9529 3.95455 31.2676 3.95455V4.95455C31.7943 4.95455 32.2247 5.07499 32.5785 5.29707L33.1101 4.45009ZM31.2676 3.95455C30.5135 3.95455 29.8348 4.14314 29.2536 4.53817L29.8157 5.36524C30.2098 5.09739 30.6865 4.95455 31.2676 4.95455V3.95455ZM29.2545 4.53756C28.6994 4.91302 28.2701 5.40555 27.9715 6.00812L28.8676 6.4521C29.0898 6.00354 29.4039 5.64379 29.8148 5.36585L29.2545 4.53756ZM27.9715 6.00812C27.6761 6.60447 27.5289 7.24412 27.5289 7.92045H28.5289C28.5289 7.39413 28.6422 6.90689 28.8676 6.4521L27.9715 6.00812ZM27.5289 7.92045V8.88636H28.5289V7.92045H27.5289ZM27.5289 8.88636C27.5289 9.76581 27.6804 10.5447 28.0071 11.2037L28.903 10.7594C28.6616 10.2725 28.5289 9.65464 28.5289 8.88636H27.5289ZM28.0094 11.2081C28.3382 11.8551 28.8027 12.3627 29.4034 12.7131L29.9073 11.8494C29.4853 11.6032 29.1496 11.2444 28.9008 10.755L28.0094 11.2081ZM29.4064 12.7149C30.0042 13.058 30.6867 13.2216 31.438 13.2216V12.2216C30.8352 12.2216 30.3293 12.0916 29.9043 11.8476L29.4064 12.7149ZM31.438 13.2216C31.9248 13.2216 32.379 13.1535 32.795 13.0093L32.4674 12.0645C32.1732 12.1665 31.832 12.2216 31.438 12.2216V13.2216ZM32.7986 13.0081C33.2217 12.8578 33.594 12.6319 33.9086 12.3288L33.2147 11.6087C33.0084 11.8075 32.7604 11.9604 32.4638 12.0658L32.7986 13.0081ZM33.9119 12.3255C34.2298 12.0135 34.4686 11.6322 34.6335 11.1926L33.6971 10.8415C33.5779 11.1595 33.4143 11.4127 33.2113 11.612L33.9119 12.3255ZM34.0302 11.4984L35.6495 11.953L35.9198 10.9902L34.3004 10.5357L34.0302 11.4984ZM35.3071 11.3234C35.16 11.7974 34.9142 12.2122 34.5656 12.5731L35.2849 13.2678C35.7413 12.7953 36.0683 12.2443 36.2622 11.6198L35.3071 11.3234ZM34.5676 12.571C34.2196 12.9273 33.7841 13.212 33.2513 13.4209L33.6162 14.3519C34.2672 14.0967 34.826 13.7375 35.2829 13.2699L34.5676 12.571ZM33.2545 13.4196C32.7285 13.6216 32.1253 13.7273 31.438 13.7273V14.7273C32.228 14.7273 32.9553 14.6057 33.613 14.3531L33.2545 13.4196ZM39.4618 3.09091L39.8932 2.83812L39.7484 2.59091H39.4618V3.09091ZM42.0755 7.55114L41.6441 7.80393L42.0755 8.5401L42.5069 7.80393L42.0755 7.55114ZM44.6891 3.09091V2.59091H44.4026L44.2577 2.83812L44.6891 3.09091ZM46.6209 3.09091L47.0409 3.36217L47.539 2.59091H46.6209V3.09091ZM43.0982 8.54545L42.6782 8.27419L42.503 8.54545L42.6782 8.81672L43.0982 8.54545ZM46.6209 14V14.5H47.539L47.0409 13.7287L46.6209 14ZM44.6891 14L44.2637 14.2627L44.4102 14.5H44.6891V14ZM42.0755 9.76705L42.5009 9.50436L42.0755 8.81534L41.65 9.50436L42.0755 9.76705ZM39.4618 14V14.5H39.7407L39.8873 14.2627L39.4618 14ZM37.53 14L37.108 13.7318L36.6199 14.5H37.53V14ZM40.9959 8.54545L41.4179 8.81361L41.5883 8.54545L41.4179 8.2773L40.9959 8.54545ZM37.53 3.09091V2.59091H36.6199L37.108 3.35906L37.53 3.09091ZM39.0304 3.3437L41.6441 7.80393L42.5069 7.29835L39.8932 2.83812L39.0304 3.3437ZM42.5069 7.80393L45.1205 3.3437L44.2577 2.83812L41.6441 7.29835L42.5069 7.80393ZM44.6891 3.59091H46.6209V2.59091H44.6891V3.59091ZM46.2009 2.81965L42.6782 8.27419L43.5182 8.81672L47.0409 3.36217L46.2009 2.81965ZM42.6782 8.81672L46.2009 14.2713L47.0409 13.7287L43.5182 8.27419L42.6782 8.81672ZM46.6209 13.5H44.6891V14.5H46.6209V13.5ZM45.1145 13.7373L42.5009 9.50436L41.65 10.0297L44.2637 14.2627L45.1145 13.7373ZM41.65 9.50436L39.0364 13.7373L39.8873 14.2627L42.5009 10.0297L41.65 9.50436ZM39.4618 13.5H37.53V14.5H39.4618V13.5ZM37.952 14.2682L41.4179 8.81361L40.5739 8.2773L37.108 13.7318L37.952 14.2682ZM41.4179 8.2773L37.952 2.82276L37.108 3.35906L40.5739 8.81361L41.4179 8.2773ZM37.53 3.59091H39.4618V2.59091H37.53V3.59091ZM53.7569 3.09091H54.2569V2.59091H53.7569V3.09091ZM53.7569 4.51136V5.01136H54.2569V4.51136H53.7569ZM48.1035 4.51136H47.6035V5.01136H48.1035V4.51136ZM48.1035 3.09091V2.59091H47.6035V3.09091H48.1035ZM49.7512 0.477273V-0.0227275H49.2512V0.477273H49.7512ZM51.4274 0.477273H51.9274V-0.0227275H51.4274V0.477273ZM51.6333 11.9403L51.2007 12.1913L51.2069 12.2014L51.6333 11.9403ZM52.1731 12.4091L51.9997 12.8782L52.012 12.8824L52.1731 12.4091ZM53.3308 12.4943L53.4098 12.988L53.4193 12.9865L53.4288 12.9846L53.3308 12.4943ZM53.6149 12.4375L54.1025 12.3271L53.9949 11.8516L53.5168 11.9472L53.6149 12.4375ZM53.9558 13.9432L54.1313 14.4113L54.5398 14.2582L54.4434 13.8328L53.9558 13.9432ZM53.4799 14.071L53.3775 13.5815L53.3667 13.584L53.4799 14.071ZM51.3137 13.8366L51.1076 14.2922L51.1094 14.293L51.3137 13.8366ZM50.1916 12.9062L49.7828 13.1942L49.785 13.1973L50.1916 12.9062ZM53.2569 3.09091V4.51136H54.2569V3.09091H53.2569ZM53.7569 4.01136H48.1035V5.01136H53.7569V4.01136ZM48.6035 4.51136V3.09091H47.6035V4.51136H48.6035ZM48.1035 3.59091H53.7569V2.59091H48.1035V3.59091ZM49.7512 0.977273H51.4274V-0.0227275H49.7512V0.977273ZM50.9274 0.477273V10.875H51.9274V0.477273H50.9274ZM50.9274 10.875C50.9274 11.3804 50.9978 11.8411 51.2008 12.1912L52.0659 11.6895C51.9943 11.5661 51.9274 11.3165 51.9274 10.875H50.9274ZM51.2069 12.2014C51.3971 12.5121 51.6593 12.7522 51.9998 12.8781L52.3464 11.9401C52.2514 11.905 52.1537 11.8326 52.0598 11.6793L51.2069 12.2014ZM52.012 12.8824C52.2888 12.9767 52.5778 13.0227 52.8762 13.0227V12.0227C52.6822 12.0227 52.5025 11.993 52.3343 11.9358L52.012 12.8824ZM52.8762 13.0227C53.0749 13.0227 53.2553 13.0128 53.4098 12.988L53.2518 12.0006C53.1695 12.0138 53.047 12.0227 52.8762 12.0227V13.0227ZM53.4288 12.9846C53.5472 12.9609 53.6419 12.942 53.7129 12.9278L53.5168 11.9472C53.4458 11.9614 53.3511 11.9804 53.2327 12.004L53.4288 12.9846ZM53.1272 12.5479L53.4681 14.0536L54.4434 13.8328L54.1025 12.3271L53.1272 12.5479ZM53.7802 13.475C53.7013 13.5046 53.5711 13.5411 53.3775 13.5816L53.5824 14.5604C53.796 14.5157 53.983 14.467 54.1313 14.4113L53.7802 13.475ZM53.3667 13.584C53.2136 13.6196 52.9969 13.642 52.7058 13.642V14.642C53.0396 14.642 53.3391 14.6171 53.5932 14.558L53.3667 13.584ZM52.7058 13.642C52.3064 13.642 51.9118 13.5567 51.5181 13.3803L51.1094 14.293C51.6248 14.5238 52.1582 14.642 52.7058 14.642V13.642ZM51.5199 13.3811C51.1533 13.2152 50.8473 12.9632 50.5981 12.6152L49.785 13.1973C50.1325 13.6826 50.5746 14.0509 51.1076 14.2922L51.5199 13.3811ZM50.6003 12.6183C50.3793 12.3046 50.2512 11.8864 50.2512 11.3295H49.2512C49.2512 12.0417 49.4167 12.6746 49.7828 13.1942L50.6003 12.6183ZM50.2512 11.3295V0.477273H49.2512V11.3295H50.2512ZM0.074398 41.125H-0.425602V41.625H0.074398V41.125ZM0.074398 36.4375V35.9375H-0.425602V36.4375H0.074398ZM0.983486 36.4375V36.9375H1.19672L1.34433 36.7836L0.983486 36.4375ZM1.55877 35.6847L1.98818 35.9408L1.55877 35.6847ZM1.97781 34.7259L1.50285 34.5695L1.50166 34.5732L1.97781 34.7259ZM2.29031 33.3622L2.78408 33.4409L2.78419 33.4402L2.29031 33.3622ZM2.51758 31.4091L3.0157 31.4524L3.01576 31.4517L2.51758 31.4091ZM2.8869 27.0909V26.5909H2.42783L2.38871 27.0483L2.8869 27.0909ZM9.81871 27.0909H10.3187V26.5909H9.81871V27.0909ZM9.81871 36.4375H9.31871V36.9375H9.81871V36.4375ZM11.4949 36.4375H11.9949V35.9375H11.4949V36.4375ZM11.4949 41.125V41.625H11.9949V41.125H11.4949ZM9.81871 41.125H9.31871V41.625H9.81871V41.125ZM9.81871 38H10.3187V37.5H9.81871V38ZM1.75053 38V37.5H1.25053V38H1.75053ZM1.75053 41.125V41.625H2.25053V41.125H1.75053ZM2.8869 36.4375L2.48824 36.1357L1.88128 36.9375H2.8869V36.4375ZM8.14258 36.4375V36.9375H8.64258V36.4375H8.14258ZM8.14258 28.6534H8.64258V28.1534H8.14258V28.6534ZM4.4494 28.6534V28.1534H3.99829L3.95203 28.6021L4.4494 28.6534ZM4.16531 31.4091L4.66264 31.4607L4.66267 31.4604L4.16531 31.4091ZM3.72496 34.3991L3.2352 34.2985L3.72496 34.3991ZM0.574398 41.125V36.4375H-0.425602V41.125H0.574398ZM0.074398 36.9375H0.983486V35.9375H0.074398V36.9375ZM1.34433 36.7836C1.59245 36.5249 1.80737 36.2439 1.98818 35.9408L1.12936 35.4285C0.988197 35.6652 0.819603 35.8861 0.622646 36.0914L1.34433 36.7836ZM1.98818 35.9408C2.17253 35.6317 2.32656 35.2759 2.45395 34.8785L1.50166 34.5732C1.3923 34.9144 1.26699 35.1978 1.12936 35.4285L1.98818 35.9408ZM2.45274 34.8822C2.58663 34.4753 2.69609 33.9932 2.78408 33.4409L1.79653 33.2836C1.71406 33.8013 1.61519 34.2282 1.50286 34.5695L2.45274 34.8822ZM2.78419 33.4402C2.87179 32.8854 2.94876 32.2221 3.0157 31.4524L2.01946 31.3658C1.95382 32.1207 1.87928 32.7595 1.79642 33.2842L2.78419 33.4402ZM3.01576 31.4517L3.38508 27.1335L2.38871 27.0483L2.0194 31.3665L3.01576 31.4517ZM2.8869 27.5909H9.81871V26.5909H2.8869V27.5909ZM9.31871 27.0909V36.4375H10.3187V27.0909H9.31871ZM9.81871 36.9375H11.4949V35.9375H9.81871V36.9375ZM10.9949 36.4375V41.125H11.9949V36.4375H10.9949ZM11.4949 40.625H9.81871V41.625H11.4949V40.625ZM10.3187 41.125V38H9.31871V41.125H10.3187ZM9.81871 37.5H1.75053V38.5H9.81871V37.5ZM1.25053 38V41.125H2.25053V38H1.25053ZM1.75053 40.625H0.074398V41.625H1.75053V40.625ZM2.8869 36.9375H8.14258V35.9375H2.8869V36.9375ZM8.64258 36.4375V28.6534H7.64258V36.4375H8.64258ZM8.14258 28.1534H4.4494V29.1534H8.14258V28.1534ZM3.95203 28.6021L3.66794 31.3578L4.66267 31.4604L4.94676 28.7047L3.95203 28.6021ZM3.66797 31.3575C3.55081 32.487 3.4062 33.4666 3.2352 34.2985L4.21473 34.4998C4.3941 33.6272 4.54306 32.6134 4.66264 31.4607L3.66797 31.3575ZM3.2352 34.2985C3.06979 35.1032 2.81337 35.7062 2.48824 36.1357L3.28555 36.7393C3.72746 36.1555 4.02976 35.3996 4.21473 34.4998L3.2352 34.2985ZM15.0478 37.8651L14.8349 38.3175L14.838 38.3189L15.0478 37.8651ZM13.7054 36.7216L13.2882 36.9971L13.2894 36.9989L13.7054 36.7216ZM13.5776 33.3835L13.9999 33.6513L14.0013 33.649L13.5776 33.3835ZM15.9284 31.9631L16.0354 32.4515L16.0389 32.4507L15.9284 31.9631ZM17.4412 31.6932L17.3775 31.1973L17.3764 31.1974L17.4412 31.6932ZM19.0534 31.5014L19.1049 31.9988L19.1099 31.9982L19.0534 31.5014ZM19.9625 31.267L19.7179 30.8309L19.7133 30.8336L19.9625 31.267ZM19.6784 29.0085L19.3205 29.3577L19.3227 29.3599L19.6784 29.0085ZM16.0705 28.9517L16.3757 29.3477L16.0705 28.9517ZM15.1117 30.0739L14.9435 30.5447L15.3731 30.6982L15.5652 30.2844L15.1117 30.0739ZM13.5208 29.5057L13.0612 29.3087L12.8517 29.7976L13.3526 29.9766L13.5208 29.5057ZM14.6571 27.9574L14.9647 28.3516L14.9652 28.3512L14.6571 27.9574ZM16.2196 27.1761L16.3457 27.66L16.3485 27.6593L16.2196 27.1761ZM19.1032 27.0767L19.011 27.5682L19.0168 27.5692L19.1032 27.0767ZM20.4313 27.581L20.174 28.0097L20.1761 28.011L20.4313 27.581ZM21.5037 28.7386L21.0657 28.9798L21.5037 28.7386ZM21.9299 38V38.5H22.4299V38H21.9299ZM20.2537 38H19.7537V38.5H20.2537V38ZM20.2537 36.5227H20.7537V36.0227H20.2537V36.5227ZM20.1685 36.5227V36.0227H19.8539L19.7177 36.3064L20.1685 36.5227ZM19.6003 37.2827L19.957 37.6331V37.6331L19.6003 37.2827ZM18.5421 37.9716L18.3445 37.5123L18.5421 37.9716ZM18.8617 36.3594L18.6151 35.9244L18.6131 35.9255L18.8617 36.3594ZM19.8986 35.3509L19.4651 35.1017L19.463 35.1055L19.8986 35.3509ZM20.2537 32.517H20.7537V31.136L19.8696 32.197L20.2537 32.517ZM19.785 32.7514L19.9198 33.2329L19.9261 33.2311L19.785 32.7514ZM18.9611 32.929L19.0372 33.4232L19.0433 33.4222L18.9611 32.929ZM18.0591 33.0568L18.1161 33.5536L18.1231 33.5527L18.0591 33.0568ZM17.356 33.142L17.4207 33.6378L17.4212 33.6378L17.356 33.142ZM16.1344 33.419L16.2907 33.894L16.2943 33.8928L16.1344 33.419ZM15.2253 33.9801L14.8582 33.6407L14.8579 33.641L15.2253 33.9801ZM15.5307 36.3097L15.2461 36.7208L15.2513 36.7243L15.5307 36.3097ZM16.9299 37.7557C16.3027 37.7557 15.7481 37.6379 15.2575 37.4112L14.838 38.3189C15.4743 38.613 16.1744 38.7557 16.9299 38.7557V37.7557ZM15.2607 37.4126C14.776 37.1846 14.4002 36.8624 14.1215 36.4442L13.2894 36.9989C13.6735 37.5751 14.1927 38.0153 14.8349 38.3175L15.2607 37.4126ZM14.1227 36.4461C13.8544 36.0398 13.7083 35.5337 13.7083 34.9034H12.7083C12.7083 35.6936 12.8936 36.3996 13.2882 36.9971L14.1227 36.4461ZM13.7083 34.9034C13.7083 34.3402 13.8196 33.9355 13.9998 33.6513L13.1553 33.1158C12.8432 33.608 12.7083 34.2166 12.7083 34.9034H13.7083ZM14.0013 33.649C14.2012 33.33 14.4658 33.082 14.8025 32.9001L14.3272 32.0203C13.8399 32.2835 13.4464 32.6511 13.1539 33.1181L14.0013 33.649ZM14.8025 32.9001C15.1699 32.7016 15.5799 32.5513 16.0354 32.4515L15.8215 31.4746C15.2826 31.5927 14.7836 31.7738 14.3272 32.0203L14.8025 32.9001ZM16.0389 32.4507C16.5258 32.3405 17.0149 32.2532 17.5061 32.189L17.3764 31.1974C16.8543 31.2657 16.3349 31.3584 15.818 31.4754L16.0389 32.4507ZM17.505 32.1891C18.1659 32.1041 18.6988 32.0408 19.1049 31.9988L19.002 31.0041C18.5843 31.0473 18.0423 31.1118 17.3775 31.1973L17.505 32.1891ZM19.1099 31.9982C19.5435 31.949 19.9307 31.8621 20.2118 31.7005L19.7133 30.8336C19.6156 30.8898 19.3967 30.9592 18.997 31.0046L19.1099 31.9982ZM20.2072 31.7031C20.595 31.4855 20.7537 31.1041 20.7537 30.6989H19.7537C19.7537 30.7752 19.7399 30.8075 19.736 30.8153C19.734 30.819 19.7328 30.8203 19.7321 30.821C19.7313 30.8219 19.7276 30.8255 19.7179 30.831L20.2072 31.7031ZM20.7537 30.6989V30.642H19.7537V30.6989H20.7537ZM20.7537 30.642C20.7537 29.8488 20.5344 29.1635 20.0342 28.6571L19.3227 29.3599C19.5896 29.63 19.7537 30.0338 19.7537 30.642H20.7537ZM20.0363 28.6594C19.5296 28.14 18.8014 27.9261 17.9526 27.9261V28.9261C18.6473 28.9261 19.0697 29.1006 19.3206 29.3577L20.0363 28.6594ZM17.9526 27.9261C17.0847 27.9261 16.3359 28.1158 15.7652 28.5557L16.3757 29.3477C16.7141 29.0869 17.2202 28.9261 17.9526 28.9261V27.9261ZM15.7652 28.5557C15.266 28.9405 14.8855 29.3738 14.6582 29.8633L15.5652 30.2844C15.7072 29.9785 15.9658 29.6637 16.3757 29.3477L15.7652 28.5557ZM15.2799 29.603L13.6889 29.0348L13.3526 29.9766L14.9435 30.5447L15.2799 29.603ZM13.9803 29.7026C14.2379 29.1018 14.5699 28.6596 14.9647 28.3516L14.3496 27.5631C13.7975 27.9938 13.3719 28.5838 13.0612 29.3087L13.9803 29.7026ZM14.9652 28.3512C15.3919 28.0175 15.8512 27.7888 16.3457 27.66L16.0936 26.6923C15.4611 26.857 14.8788 27.1492 14.3491 27.5636L14.9652 28.3512ZM16.3485 27.6593C16.8776 27.5182 17.393 27.4489 17.8958 27.4489V26.4489C17.3001 26.4489 16.6981 26.5311 16.0908 26.693L16.3485 27.6593ZM17.8958 27.4489C18.2073 27.4489 18.5778 27.4869 19.011 27.5681L19.1953 26.5853C18.7194 26.496 18.2851 26.4489 17.8958 26.4489V27.4489ZM19.0168 27.5692C19.4118 27.6384 19.797 27.7835 20.174 28.0097L20.6885 27.1522C20.2133 26.8671 19.713 26.676 19.1895 26.5842L19.0168 27.5692ZM20.1761 28.011C20.5177 28.2137 20.817 28.5279 21.0657 28.9798L21.9418 28.4975C21.6223 27.9171 21.2066 27.4596 20.6864 27.151L20.1761 28.011ZM21.0657 28.9798C21.2944 29.3953 21.4299 29.9935 21.4299 30.8125H22.4299C22.4299 29.8986 22.2812 29.1142 21.9418 28.4975L21.0657 28.9798ZM21.4299 30.8125V38H22.4299V30.8125H21.4299ZM21.9299 37.5H20.2537V38.5H21.9299V37.5ZM20.7537 38V36.5227H19.7537V38H20.7537ZM20.2537 36.0227H20.1685V37.0227H20.2537V36.0227ZM19.7177 36.3064C19.6359 36.4769 19.4858 36.6858 19.2437 36.9323L19.957 37.6331C20.2452 37.3397 20.4739 37.042 20.6193 36.7391L19.7177 36.3064ZM19.2437 36.9323C19.0343 37.1453 18.7406 37.3419 18.3445 37.5123L18.7396 38.4309C19.2243 38.2225 19.636 37.9598 19.957 37.6331L19.2437 36.9323ZM18.3445 37.5123C17.9833 37.6677 17.5173 37.7557 16.9299 37.7557V38.7557C17.6114 38.7557 18.2202 38.6543 18.7396 38.4309L18.3445 37.5123ZM17.1855 37.25C17.9129 37.25 18.5625 37.107 19.1102 36.7932L18.6131 35.9255C18.2518 36.1325 17.784 36.25 17.1855 36.25V37.25ZM19.1083 36.7943C19.6372 36.4944 20.0526 36.0963 20.3343 35.5962L19.463 35.1055C19.2806 35.4292 19.0047 35.7035 18.6151 35.9244L19.1083 36.7943ZM20.3321 35.6C20.6104 35.1158 20.7537 34.5971 20.7537 34.0511H19.7537C19.7537 34.4142 19.6603 34.762 19.4651 35.1017L20.3321 35.6ZM20.7537 34.0511V32.517H19.7537V34.0511H20.7537ZM19.8696 32.197C19.8963 32.1649 19.9077 32.1683 19.8597 32.1923C19.8168 32.2138 19.7475 32.2413 19.6439 32.2717L19.9261 33.2311C20.064 33.1905 20.1935 33.1435 20.3069 33.0868C20.4151 33.0326 20.5401 32.9544 20.6378 32.8371L19.8696 32.197ZM19.6502 32.2699C19.4348 32.3302 19.1784 32.3859 18.8789 32.4358L19.0433 33.4222C19.3688 33.3679 19.6616 33.3052 19.9198 33.2329L19.6502 32.2699ZM18.8851 32.4348C18.5811 32.4816 18.2845 32.5236 17.9951 32.5609L18.1231 33.5527C18.4209 33.5143 18.7256 33.4711 19.0371 33.4232L18.8851 32.4348ZM18.0021 32.5601C17.712 32.5934 17.4746 32.6221 17.2908 32.6463L17.4212 33.6378C17.5973 33.6146 17.8286 33.5866 18.1161 33.5536L18.0021 32.5601ZM17.2913 32.6462C16.8265 32.7069 16.3871 32.806 15.9745 32.9453L16.2943 33.8928C16.6393 33.7764 17.0143 33.6908 17.4207 33.6378L17.2913 32.6462ZM15.9781 32.9441C15.5358 33.0897 15.1561 33.3185 14.8582 33.6407L15.5925 34.3195C15.7586 34.1399 15.9849 33.9946 16.2907 33.894L15.9781 32.9441ZM14.8579 33.641C14.5241 34.0027 14.3844 34.4722 14.3844 34.9886H15.3844C15.3844 34.6528 15.472 34.45 15.5927 34.3193L14.8579 33.641ZM14.3844 34.9886C14.3844 35.7138 14.6637 36.3176 15.2461 36.7208L15.8153 35.8986C15.536 35.7052 15.3844 35.4283 15.3844 34.9886H14.3844ZM15.2513 36.7243C15.7893 37.0868 16.4453 37.25 17.1855 37.25V36.25C16.5906 36.25 16.1434 36.1196 15.8101 35.895L15.2513 36.7243ZM24.0233 38H23.5233V38.5H24.0233V38ZM24.0233 36.4375V35.9375H23.5233V36.4375H24.0233ZM25.2377 36.2457L25.4909 36.677L25.4977 36.6728L25.2377 36.2457ZM25.7633 35.5568L25.3014 35.3654L25.3 35.3688L25.7633 35.5568ZM26.0758 34.179L25.5799 34.1155L25.5794 34.1189L26.0758 34.179ZM26.2392 31.9205L25.7396 31.8999L25.7395 31.9023L26.2392 31.9205ZM26.438 27.0909V26.5909H25.9582L25.9385 27.0703L26.438 27.0909ZM33.7108 27.0909H34.2108V26.5909H33.7108V27.0909ZM33.7108 38V38.5H34.2108V38H33.7108ZM32.0346 38H31.5346V38.5H32.0346V38ZM32.0346 28.6534H32.5346V28.1534H32.0346V28.6534ZM28.0289 28.6534V28.1534H27.5504L27.5294 28.6315L28.0289 28.6534ZM27.8585 32.5455L27.359 32.5236L27.3589 32.5243L27.8585 32.5455ZM27.617 34.9105L27.125 34.8217L27.1245 34.8244L27.617 34.9105ZM27.0701 36.6151L26.6294 36.3788L26.6276 36.3824L27.0701 36.6151ZM24.5233 38V36.4375H23.5233V38H24.5233ZM24.0233 36.9375H24.421V35.9375H24.0233V36.9375ZM24.421 36.9375C24.8111 36.9375 25.1769 36.8612 25.4908 36.6769L24.9846 35.8145C24.863 35.8859 24.6843 35.9375 24.421 35.9375V36.9375ZM25.4977 36.6728C25.8365 36.4666 26.0688 36.1337 26.2266 35.7448L25.3 35.3688C25.1927 35.6333 25.0746 35.7597 24.9778 35.8186L25.4977 36.6728ZM26.2252 35.7482C26.3875 35.3564 26.4988 34.8461 26.5722 34.239L25.5794 34.1189C25.5108 34.6861 25.4137 35.0943 25.3014 35.3654L26.2252 35.7482ZM26.5718 34.2425C26.6502 33.6299 26.7054 32.8605 26.7388 31.9386L25.7395 31.9023C25.7066 32.808 25.653 33.5444 25.5799 34.1155L26.5718 34.2425ZM26.7387 31.941L26.9376 27.1115L25.9385 27.0703L25.7396 31.8999L26.7387 31.941ZM26.438 27.5909H33.7108V26.5909H26.438V27.5909ZM33.2108 27.0909V38H34.2108V27.0909H33.2108ZM33.7108 37.5H32.0346V38.5H33.7108V37.5ZM32.5346 38V28.6534H31.5346V38H32.5346ZM32.0346 28.1534H28.0289V29.1534H32.0346V28.1534ZM27.5294 28.6315L27.359 32.5236L28.358 32.5673L28.5285 28.6753L27.5294 28.6315ZM27.3589 32.5243C27.3218 33.4027 27.2431 34.1676 27.125 34.8217L28.1091 34.9994C28.2372 34.2898 28.3195 33.478 28.358 32.5666L27.3589 32.5243ZM27.1245 34.8244C27.0125 35.4647 26.8439 35.9788 26.6295 36.3788L27.5108 36.8513C27.7888 36.3328 27.9847 35.7105 28.1095 34.9966L27.1245 34.8244ZM26.6276 36.3824C26.4248 36.768 26.1657 37.0394 25.8545 37.2188L26.3539 38.0852C26.8477 37.8005 27.2325 37.3806 27.5127 36.8477L26.6276 36.3824ZM25.8545 37.2188C25.5477 37.3957 25.1359 37.5 24.5914 37.5V38.5C25.2592 38.5 25.8558 38.3723 26.3539 38.0852L25.8545 37.2188ZM24.5914 37.5H24.0233V38.5H24.5914V37.5ZM38.2349 31.0398V30.5398H37.7349V31.0398H38.2349ZM44.2931 32.0128L44.639 31.6517L44.2931 32.0128ZM44.8542 36.2599L45.2884 36.508L45.2893 36.5064L44.8542 36.2599ZM43.519 37.5312L43.7539 37.9726L43.7567 37.9711L43.519 37.5312ZM36.786 38H36.286V38.5H36.786V38ZM36.786 27.0909V26.5909H36.286V27.0909H36.786ZM38.4622 27.0909H38.9622V26.5909H38.4622V27.0909ZM38.4622 36.4375H37.9622V36.9375H38.4622V36.4375ZM42.9934 33.1491L42.6684 33.5291L42.9934 33.1491ZM38.2349 32.6023H37.7349V33.1023H38.2349V32.6023ZM38.2349 31.5398H41.3599V30.5398H38.2349V31.5398ZM41.3599 31.5398C42.5571 31.5398 43.3928 31.8426 43.9473 32.3738L44.639 31.6517C43.8394 30.8856 42.7195 30.5398 41.3599 30.5398V31.5398ZM43.9473 32.3738C44.5194 32.922 44.8088 33.6101 44.8088 34.4773H45.8088C45.8088 33.3558 45.421 32.4009 44.639 31.6517L43.9473 32.3738ZM44.8088 34.4773C44.8088 35.0499 44.6769 35.5584 44.4192 36.0135L45.2893 36.5064C45.6376 35.8914 45.8088 35.2114 45.8088 34.4773H44.8088ZM44.4201 36.0119C44.1676 36.4537 43.7942 36.8142 43.2813 37.0914L43.7567 37.9711C44.418 37.6138 44.9348 37.1268 45.2883 36.508L44.4201 36.0119ZM43.2841 37.0899C42.7868 37.3546 42.1527 37.5 41.3599 37.5V38.5C42.2717 38.5 43.077 38.3329 43.7539 37.9726L43.2841 37.0899ZM41.3599 37.5H36.786V38.5H41.3599V37.5ZM37.286 38V27.0909H36.286V38H37.286ZM36.786 27.5909H38.4622V26.5909H36.786V27.5909ZM37.9622 27.0909V36.4375H38.9622V27.0909H37.9622ZM38.4622 36.9375H41.3599V35.9375H38.4622V36.9375ZM41.3599 36.9375C42.1143 36.9375 42.7783 36.7362 43.311 36.2981L42.6759 35.5257C42.3563 35.7885 41.9312 35.9375 41.3599 35.9375V36.9375ZM43.311 36.2981C43.852 35.8533 44.1326 35.2621 44.1326 34.5625H43.1326C43.1326 34.9614 42.9871 35.2698 42.6759 35.5257L43.311 36.2981ZM44.1326 34.5625C44.1326 33.8438 43.8594 33.232 43.3185 32.7692L42.6684 33.5291C42.9797 33.7954 43.1326 34.1259 43.1326 34.5625H44.1326ZM43.3185 32.7692C42.7858 32.3135 42.1192 32.1023 41.3599 32.1023V33.1023C41.9264 33.1023 42.3488 33.2556 42.6684 33.5291L43.3185 32.7692ZM41.3599 32.1023H38.2349V33.1023H41.3599V32.1023ZM38.7349 32.6023V31.0398H37.7349V32.6023H38.7349ZM47.8603 27.0909V26.5909H47.3603V27.0909H47.8603ZM49.5364 27.0909H50.0364V26.5909H49.5364V27.0909ZM49.5364 36.4375H49.0364V36.9375H49.5364V36.4375ZM53.6557 36.4375V36.9375H54.1557V36.4375H53.6557ZM53.6557 27.0909V26.5909H53.1557V27.0909H53.6557ZM55.3319 27.0909H55.8319V26.5909H55.3319V27.0909ZM55.3319 36.4375H54.8319V36.9375H55.3319V36.4375ZM59.4512 36.4375V36.9375H59.9512V36.4375H59.4512ZM59.4512 27.0909V26.5909H58.9512V27.0909H59.4512ZM61.1273 27.0909H61.6273V26.5909H61.1273V27.0909ZM61.1273 38V38.5H61.6273V38H61.1273ZM47.8603 38H47.3603V38.5H47.8603V38ZM47.8603 27.5909H49.5364V26.5909H47.8603V27.5909ZM49.0364 27.0909V36.4375H50.0364V27.0909H49.0364ZM49.5364 36.9375H53.6557V35.9375H49.5364V36.9375ZM54.1557 36.4375V27.0909H53.1557V36.4375H54.1557ZM53.6557 27.5909H55.3319V26.5909H53.6557V27.5909ZM54.8319 27.0909V36.4375H55.8319V27.0909H54.8319ZM55.3319 36.9375H59.4512V35.9375H55.3319V36.9375ZM59.9512 36.4375V27.0909H58.9512V36.4375H59.9512ZM59.4512 27.5909H61.1273V26.5909H59.4512V27.5909ZM60.6273 27.0909V38H61.6273V27.0909H60.6273ZM61.1273 37.5H47.8603V38.5H61.1273V37.5ZM48.3603 38V27.0909H47.3603V38H48.3603ZM66.0421 37.5312L65.779 37.9565L65.7821 37.9584L66.0421 37.5312ZM64.2878 35.571L63.8376 35.7885L63.8391 35.7916L64.2878 35.571ZM64.2878 29.6761L63.8372 29.4595L63.8367 29.4606L64.2878 29.6761ZM66.0066 27.6733L66.2795 28.0922L66.2802 28.0918L66.0066 27.6733ZM70.275 27.233L70.4368 26.7598L70.275 27.233ZM71.7878 28.1562L71.4458 28.521L71.4479 28.5229L71.7878 28.1562ZM72.8745 29.8324L73.3407 29.6516L72.8745 29.8324ZM73.2793 33.1136V33.6136H73.7793V33.1136H73.2793ZM64.8702 33.1136H64.3702V33.6136H64.8702V33.1136ZM64.8702 31.6648V31.1648H64.3702V31.6648H64.8702ZM71.5748 31.6648V32.1648H72.0748V31.6648H71.5748ZM71.2054 30.017L70.7582 30.2407L70.76 30.2441L71.2054 30.017ZM70.1685 28.8736L69.9027 29.2971L69.9047 29.2983L70.1685 28.8736ZM66.8588 28.9517L67.139 29.3658L67.1399 29.3652L66.8588 28.9517ZM65.7438 30.2301L65.2958 30.0081L65.7438 30.2301ZM65.7793 34.9815L65.3313 35.2037L65.3336 35.2081L65.7793 34.9815ZM66.9796 36.2812L66.7276 36.7132L66.7306 36.7149L66.9796 36.2812ZM69.9554 36.5369L70.1192 37.0094L70.1228 37.0081L69.9554 36.5369ZM70.8858 35.9688L71.2328 36.3288L71.2361 36.3255L70.8858 35.9688ZM71.4895 35.017L71.6246 34.5357L71.1826 34.4116L71.0214 34.8415L71.4895 35.017ZM73.1088 35.4716L73.5864 35.6198L73.7387 35.1291L73.244 34.9902L73.1088 35.4716ZM72.2495 36.9205L72.6071 37.2699L72.6091 37.2678L72.2495 36.9205ZM70.758 37.8864L70.9372 38.3531L70.9405 38.3519L70.758 37.8864ZM68.7623 37.7273C67.7863 37.7273 66.973 37.5126 66.3021 37.1041L65.7821 37.9584C66.6357 38.478 67.6359 38.7273 68.7623 38.7273V37.7273ZM66.3052 37.1061C65.6314 36.6892 65.1091 36.1085 64.7365 35.3505L63.8391 35.7916C64.2904 36.7097 64.9376 37.4358 65.779 37.9564L66.3052 37.1061ZM64.738 35.3535C64.3694 34.5904 64.177 33.6872 64.177 32.6307H63.177C63.177 33.809 63.3919 34.866 63.8376 35.7885L64.738 35.3535ZM64.177 32.6307C64.177 31.5743 64.3693 30.6654 64.739 29.8917L63.8367 29.4606C63.392 30.3914 63.177 31.4522 63.177 32.6307H64.177ZM64.7385 29.8927C65.1143 29.1109 65.6288 28.5163 66.2795 28.0922L65.7336 27.2544C64.9166 27.7868 64.2852 28.5274 63.8372 29.4595L64.7385 29.8927ZM66.2802 28.0918C66.9282 27.6681 67.6925 27.4489 68.5918 27.4489V26.4489C67.5214 26.4489 66.5622 26.7126 65.7329 27.2548L66.2802 28.0918ZM68.5918 27.4489C69.1033 27.4489 69.6098 27.5339 70.1133 27.7061L70.4368 26.7598C69.8323 26.5532 69.2167 26.4489 68.5918 26.4489V27.4489ZM70.1133 27.7061C70.5959 27.8711 71.0396 28.1402 71.4458 28.521L72.1298 27.7915C71.6269 27.32 71.0621 26.9736 70.4368 26.7598L70.1133 27.7061ZM71.4479 28.5229C71.8366 28.8833 72.1603 29.3736 72.4083 30.0131L73.3407 29.6516C73.0489 28.8991 72.6482 28.2721 72.1278 27.7896L71.4479 28.5229ZM72.4083 30.0131C72.6493 30.6347 72.7793 31.4262 72.7793 32.4034H73.7793C73.7793 31.3446 73.6394 30.4221 73.3407 29.6516L72.4083 30.0131ZM72.7793 32.4034V33.1136H73.7793V32.4034H72.7793ZM73.2793 32.6136H64.8702V33.6136H73.2793V32.6136ZM65.3702 33.1136V31.6648H64.3702V33.1136H65.3702ZM64.8702 32.1648H71.5748V31.1648H64.8702V32.1648ZM72.0748 31.6648C72.0748 30.9811 71.9375 30.3522 71.6509 29.79L70.76 30.2441C70.9657 30.6478 71.0748 31.1174 71.0748 31.6648H72.0748ZM71.6526 29.7934C71.3707 29.2295 70.9623 28.778 70.4323 28.4488L69.9047 29.2983C70.2743 29.5279 70.5572 29.8387 70.7582 30.2407L71.6526 29.7934ZM70.4343 28.4501C69.898 28.1135 69.2772 27.9545 68.5918 27.9545V28.9545C69.1185 28.9545 69.5489 29.075 69.9027 29.2971L70.4343 28.4501ZM68.5918 27.9545C67.8377 27.9545 67.159 28.1431 66.5778 28.5382L67.1399 29.3652C67.534 29.0974 68.0107 28.9545 68.5918 28.9545V27.9545ZM66.5787 28.5376C66.0237 28.913 65.5943 29.4055 65.2958 30.0081L66.1918 30.4521C66.4141 30.0035 66.7281 29.6438 67.139 29.3658L66.5787 28.5376ZM65.2958 30.0081C65.0003 30.6045 64.8532 31.2441 64.8532 31.9205H65.8532C65.8532 31.3941 65.9665 30.9069 66.1918 30.4521L65.2958 30.0081ZM64.8532 31.9205V32.8864H65.8532V31.9205H64.8532ZM64.8532 32.8864C64.8532 33.7658 65.0046 34.5447 65.3313 35.2037L66.2272 34.7594C65.9858 34.2725 65.8532 33.6546 65.8532 32.8864H64.8532ZM65.3336 35.2081C65.6625 35.8551 66.1269 36.3627 66.7276 36.7131L67.2315 35.8494C66.8095 35.6032 66.4738 35.2444 66.225 34.755L65.3336 35.2081ZM66.7306 36.7149C67.3284 37.058 68.011 37.2216 68.7623 37.2216V36.2216C68.1594 36.2216 67.6535 36.0916 67.2285 35.8476L66.7306 36.7149ZM68.7623 37.2216C69.249 37.2216 69.7033 37.1535 70.1192 37.0093L69.7917 36.0645C69.4974 36.1665 69.1562 36.2216 68.7623 36.2216V37.2216ZM70.1228 37.0081C70.5459 36.8578 70.9183 36.6319 71.2328 36.3288L70.5389 35.6087C70.3326 35.8075 70.0846 35.9604 69.788 36.0658L70.1228 37.0081ZM71.2361 36.3255C71.554 36.0135 71.7928 35.6322 71.9577 35.1926L71.0214 34.8415C70.9021 35.1595 70.7385 35.4127 70.5355 35.612L71.2361 36.3255ZM71.3544 35.4984L72.9737 35.953L73.244 34.9902L71.6246 34.5357L71.3544 35.4984ZM72.6313 35.3234C72.4842 35.7974 72.2384 36.2122 71.8898 36.5731L72.6091 37.2678C73.0655 36.7953 73.3926 36.2443 73.5864 35.6198L72.6313 35.3234ZM71.8918 36.571C71.5438 36.9273 71.1083 37.212 70.5755 37.4209L70.9405 38.3519C71.5914 38.0967 72.1502 37.7375 72.6071 37.2699L71.8918 36.571ZM70.5788 37.4196C70.0527 37.6216 69.4496 37.7273 68.7623 37.7273V38.7273C69.5522 38.7273 70.2796 38.6057 70.9372 38.3531L70.5788 37.4196Z" fill="#FFB5E1"/>
</svg>
